{
    "asset" : {
        "generator" : "Khronos glTF Blender I/O v1.7.33",
        "version" : "2.0"
    },
    "scene" : 0,
    "scenes" : [
        {
            "name" : "Scene",
            "nodes" : [
                0
            ]
        }
    ],
    "nodes" : [
        {
            "mesh" : 0,
            "name" : "Campfire_01_Camping_mat_0"
        }
    ],
    "materials" : [
        {
            "doubleSided" : true,
            "name" : "Camping_mat",
            "pbrMetallicRoughness" : {
                "baseColorTexture" : {
                    "index" : 0
                },
                "metallicFactor" : 0,
                "roughnessFactor" : 0.699999988079071
            }
        }
    ],
    "meshes" : [
        {
            "name" : "Campfire_01_Camping_mat_0",
            "primitives" : [
                {
                    "attributes" : {
                        "POSITION" : 0,
                        "NORMAL" : 1,
                        "TEXCOORD_0" : 2
                    },
                    "indices" : 3,
                    "material" : 0
                }
            ]
        }
    ],
    "textures" : [
        {
            "sampler" : 0,
            "source" : 0
        }
    ],
    "images" : [
        {
            "mimeType" : "image/jpeg",
            "name" : "Camping_mat_baseColor",
            "uri" : "textures/Camping_mat_baseColor.jpg"
        }
    ],
    "accessors" : [
        {
            "bufferView" : 0,
            "componentType" : 5126,
            "count" : 1953,
            "max" : [
                2.2191314697265625,
                0.38471269607543945,
                2.1031436920166016
            ],
            "min" : [
                -2.2191333770751953,
                -0.38471269607543945,
                -2.1031436920166016
            ],
            "type" : "VEC3"
        },
        {
            "bufferView" : 1,
            "componentType" : 5126,
            "count" : 1953,
            "type" : "VEC3"
        },
        {
            "bufferView" : 2,
            "componentType" : 5126,
            "count" : 1953,
            "type" : "VEC2"
        },
        {
            "bufferView" : 3,
            "componentType" : 5123,
            "count" : 7800,
            "type" : "SCALAR"
        }
    ],
    "bufferViews" : [
        {
            "buffer" : 0,
            "byteLength" : 23436,
            "byteOffset" : 0
        },
        {
            "buffer" : 0,
            "byteLength" : 23436,
            "byteOffset" : 23436
        },
        {
            "buffer" : 0,
            "byteLength" : 15624,
            "byteOffset" : 46872
        },
        {
            "buffer" : 0,
            "byteLength" : 15600,
            "byteOffset" : 62496
        }
    ],
    "samplers" : [
        {
            "magFilter" : 9729,
            "minFilter" : 9987
        }
    ],
    "buffers" : [
        {
            "byteLength" : 78096,
            "uri" : "scene.bin"
        }
    ]
}
