{
    "asset" : {
        "generator" : "Khronos glTF Blender I/O v1.7.33",
        "version" : "2.0"
    },
    "scene" : 0,
    "scenes" : [
        {
            "name" : "Scene",
            "nodes" : [
                0
            ]
        }
    ],
    "nodes" : [
        {
            "mesh" : 0,
            "name" : "Tent_01_Camping_mat_0"
        }
    ],
    "materials" : [
        {
            "doubleSided" : true,
            "name" : "Camping_mat",
            "pbrMetallicRoughness" : {
                "baseColorTexture" : {
                    "index" : 0
                },
                "metallicFactor" : 0,
                "roughnessFactor" : 0.699999988079071
            }
        }
    ],
    "meshes" : [
        {
            "name" : "Tent_01_Camping_mat_0",
            "primitives" : [
                {
                    "attributes" : {
                        "POSITION" : 0,
                        "NORMAL" : 1,
                        "TEXCOORD_0" : 2
                    },
                    "indices" : 3,
                    "material" : 0
                }
            ]
        }
    ],
    "textures" : [
        {
            "sampler" : 0,
            "source" : 0
        }
    ],
    "images" : [
        {
            "mimeType" : "image/jpeg",
            "name" : "Camping_mat_baseColor",
            "uri" : "textures/Camping_mat_baseColor.jpg"
        }
    ],
    "accessors" : [
        {
            "bufferView" : 0,
            "componentType" : 5126,
            "count" : 1556,
            "max" : [
                4.0839996337890625,
                3.0093746185302734,
                3.487651824951172
            ],
            "min" : [
                -4.0839996337890625,
                -3.0093748569488525,
                -3.487651824951172
            ],
            "type" : "VEC3"
        },
        {
            "bufferView" : 1,
            "componentType" : 5126,
            "count" : 1556,
            "type" : "VEC3"
        },
        {
            "bufferView" : 2,
            "componentType" : 5126,
            "count" : 1556,
            "type" : "VEC2"
        },
        {
            "bufferView" : 3,
            "componentType" : 5123,
            "count" : 4194,
            "type" : "SCALAR"
        }
    ],
    "bufferViews" : [
        {
            "buffer" : 0,
            "byteLength" : 18672,
            "byteOffset" : 0
        },
        {
            "buffer" : 0,
            "byteLength" : 18672,
            "byteOffset" : 18672
        },
        {
            "buffer" : 0,
            "byteLength" : 12448,
            "byteOffset" : 37344
        },
        {
            "buffer" : 0,
            "byteLength" : 8388,
            "byteOffset" : 49792
        }
    ],
    "samplers" : [
        {
            "magFilter" : 9729,
            "minFilter" : 9987
        }
    ],
    "buffers" : [
        {
            "byteLength" : 58180,
            "uri" : "scene.bin"
        }
    ]
}
