{
    "asset" : {
        "generator" : "Khronos glTF Blender I/O v1.7.33",
        "version" : "2.0"
    },
    "scene" : 0,
    "scenes" : [
        {
            "name" : "Scene",
            "nodes" : [
                0
            ]
        }
    ],
    "nodes" : [
        {
            "mesh" : 0,
            "name" : "Backpack_01_Camping_mat_0",
            "translation" : [
                0,
                1.399999976158142,
                0
            ]
        }
    ],
    "materials" : [
        {
            "doubleSided" : true,
            "name" : "Camping_mat",
            "pbrMetallicRoughness" : {
                "baseColorTexture" : {
                    "index" : 0
                },
                "metallicFactor" : 0,
                "roughnessFactor" : 0.699999988079071
            }
        }
    ],
    "meshes" : [
        {
            "name" : "Backpack_01_Camping_mat_0",
            "primitives" : [
                {
                    "attributes" : {
                        "POSITION" : 0,
                        "NORMAL" : 1,
                        "TEXCOORD_0" : 2
                    },
                    "indices" : 3,
                    "material" : 0
                }
            ]
        }
    ],
    "textures" : [
        {
            "sampler" : 0,
            "source" : 0
        }
    ],
    "images" : [
        {
            "mimeType" : "image/jpeg",
            "name" : "Camping_mat_baseColor",
            "uri" : "textures/Camping_mat_baseColor.jpg"
        }
    ],
    "accessors" : [
        {
            "bufferView" : 0,
            "componentType" : 5126,
            "count" : 2297,
            "max" : [
                1.2777252197265625,
                1.4891276359558105,
                1.096353530883789
            ],
            "min" : [
                -1.2777252197265625,
                -1.4891277551651,
                -1.096353530883789
            ],
            "type" : "VEC3"
        },
        {
            "bufferView" : 1,
            "componentType" : 5126,
            "count" : 2297,
            "type" : "VEC3"
        },
        {
            "bufferView" : 2,
            "componentType" : 5126,
            "count" : 2297,
            "type" : "VEC2"
        },
        {
            "bufferView" : 3,
            "componentType" : 5123,
            "count" : 9384,
            "type" : "SCALAR"
        }
    ],
    "bufferViews" : [
        {
            "buffer" : 0,
            "byteLength" : 27564,
            "byteOffset" : 0
        },
        {
            "buffer" : 0,
            "byteLength" : 27564,
            "byteOffset" : 27564
        },
        {
            "buffer" : 0,
            "byteLength" : 18376,
            "byteOffset" : 55128
        },
        {
            "buffer" : 0,
            "byteLength" : 18768,
            "byteOffset" : 73504
        }
    ],
    "samplers" : [
        {
            "magFilter" : 9729,
            "minFilter" : 9987
        }
    ],
    "buffers" : [
        {
            "byteLength" : 92272,
            "uri" : "scene.bin"
        }
    ]
}
