{
    "asset" : {
        "generator" : "Khronos glTF Blender I/O v1.7.33",
        "version" : "2.0"
    },
    "scene" : 0,
    "scenes" : [
        {
            "name" : "Scene",
            "nodes" : [
                0
            ]
        }
    ],
    "nodes" : [
        {
            "mesh" : 0,
            "name" : "Camera_02_Camping_mat_0",
            "translation" : [
                0,
                0.30000001192092896,
                0
            ]
        }
    ],
    "materials" : [
        {
            "doubleSided" : true,
            "name" : "Camping_mat",
            "pbrMetallicRoughness" : {
                "baseColorTexture" : {
                    "index" : 0
                },
                "metallicFactor" : 0,
                "roughnessFactor" : 0.699999988079071
            }
        }
    ],
    "meshes" : [
        {
            "name" : "Camera_02_Camping_mat_0",
            "primitives" : [
                {
                    "attributes" : {
                        "POSITION" : 0,
                        "NORMAL" : 1,
                        "TEXCOORD_0" : 2
                    },
                    "indices" : 3,
                    "material" : 0
                }
            ]
        }
    ],
    "textures" : [
        {
            "sampler" : 0,
            "source" : 0
        }
    ],
    "images" : [
        {
            "mimeType" : "image/jpeg",
            "name" : "Camping_mat_baseColor",
            "uri" : "textures/Camping_mat_baseColor.jpg"
        }
    ],
    "accessors" : [
        {
            "bufferView" : 0,
            "componentType" : 5126,
            "count" : 1572,
            "max" : [
                0.43857574462890625,
                0.349689781665802,
                0.5968437194824219
            ],
            "min" : [
                -0.43857574462890625,
                -0.3496897518634796,
                -0.5968437194824219
            ],
            "type" : "VEC3"
        },
        {
            "bufferView" : 1,
            "componentType" : 5126,
            "count" : 1572,
            "type" : "VEC3"
        },
        {
            "bufferView" : 2,
            "componentType" : 5126,
            "count" : 1572,
            "type" : "VEC2"
        },
        {
            "bufferView" : 3,
            "componentType" : 5123,
            "count" : 3741,
            "type" : "SCALAR"
        }
    ],
    "bufferViews" : [
        {
            "buffer" : 0,
            "byteLength" : 18864,
            "byteOffset" : 0
        },
        {
            "buffer" : 0,
            "byteLength" : 18864,
            "byteOffset" : 18864
        },
        {
            "buffer" : 0,
            "byteLength" : 12576,
            "byteOffset" : 37728
        },
        {
            "buffer" : 0,
            "byteLength" : 7482,
            "byteOffset" : 50304
        }
    ],
    "samplers" : [
        {
            "magFilter" : 9729,
            "minFilter" : 9987
        }
    ],
    "buffers" : [
        {
            "byteLength" : 57788,
            "uri" : "scene.bin"
        }
    ]
}
